<mxfile host="65bd71144e">
    <diagram id="cOPPHnaynSb4PC9Ppda5" name="ページ1">
        <mxGraphModel dx="1403" dy="475" grid="1" gridSize="10" guides="1" tooltips="1" connect="1" arrows="1" fold="1" page="1" pageScale="1" pageWidth="827" pageHeight="1169" background="none" math="0" shadow="0">
            <root>
                <mxCell id="0"/>
                <mxCell id="1" parent="0"/>
                <mxCell id="12" value="「出題」をクリック" style="text;html=1;strokeColor=none;fillColor=none;align=center;verticalAlign=middle;whiteSpace=wrap;rounded=0;" parent="1" vertex="1">
                    <mxGeometry x="-548" y="320" width="160" height="30" as="geometry"/>
                </mxCell>
                <mxCell id="34" value="過去に未回答 or &lt;br&gt;過去に間違えた を選択" style="text;html=1;strokeColor=none;fillColor=none;align=center;verticalAlign=middle;whiteSpace=wrap;rounded=0;" parent="1" vertex="1">
                    <mxGeometry x="-544" y="286" width="160" height="38" as="geometry"/>
                </mxCell>
                <mxCell id="38" value="　過去に回答したことがない&lt;br&gt;&amp;nbsp; &amp;nbsp; 問題は‥or 過去に間違えた問題は‥　○問のため選択できません。&lt;br&gt;&lt;br&gt;&lt;br&gt;&lt;br&gt;&lt;br&gt;" style="rounded=0;whiteSpace=wrap;html=1;align=left;" parent="1" vertex="1">
                    <mxGeometry x="-385" y="289" width="180" height="130" as="geometry"/>
                </mxCell>
                <mxCell id="2" value="ログイン成功&lt;br&gt;　ようこそ{ユーザーID}さん&lt;br&gt;　&lt;u&gt;JAVAクイズ&lt;/u&gt;&lt;br&gt;　&lt;u&gt;トップへ&lt;/u&gt;" style="rounded=0;whiteSpace=wrap;html=1;align=left;" parent="1" vertex="1">
                    <mxGeometry x="-720" y="42" width="180" height="130" as="geometry"/>
                </mxCell>
                <mxCell id="3" value="クイズ選択&lt;br&gt;　3つの中から選んでください&lt;br&gt;&lt;br&gt;　　●すべての問題から出題&lt;br&gt;&lt;br&gt;　　○過去に回答したことが&lt;br&gt;&amp;nbsp; &amp;nbsp; &amp;nbsp; &amp;nbsp; &amp;nbsp; ない問題のみ&lt;br&gt;&lt;br&gt;　　○過去に間違えた問題のみ&lt;br&gt;&lt;br&gt;" style="rounded=0;whiteSpace=wrap;html=1;align=left;" parent="1" vertex="1">
                    <mxGeometry x="-720" y="213" width="180" height="205" as="geometry"/>
                </mxCell>
                <mxCell id="6" value="出題" style="text;html=1;strokeColor=default;fillColor=none;align=center;verticalAlign=middle;whiteSpace=wrap;rounded=0;" parent="1" vertex="1">
                    <mxGeometry x="-596" y="394" width="48" height="21" as="geometry"/>
                </mxCell>
                <mxCell id="7" value="JAVAクイズ (○問目/10問)&lt;br&gt;&lt;br&gt;　NNN. XXXXXXXXXXXXXXXX&lt;br&gt;&amp;nbsp; &amp;nbsp; &amp;nbsp; &amp;nbsp; &amp;nbsp; &amp;nbsp; &amp;nbsp;XXXXXXXXXXXXXXXX&lt;br&gt;&amp;nbsp; &amp;nbsp; &amp;nbsp; &amp;nbsp; &amp;nbsp; &amp;nbsp; &amp;nbsp;(Nつ選択)&lt;br&gt;&lt;br&gt;&amp;nbsp; &amp;nbsp; &amp;nbsp; &amp;nbsp; &amp;nbsp; &amp;nbsp; &amp;nbsp;a. XXXXXXXXXX&amp;nbsp; ○&lt;br&gt;&amp;nbsp; &amp;nbsp; &amp;nbsp; &amp;nbsp; &amp;nbsp; &amp;nbsp; &amp;nbsp;b. XXXXXXXXXX&amp;nbsp; ○&lt;br&gt;&amp;nbsp; &amp;nbsp; &amp;nbsp; &amp;nbsp; &amp;nbsp; &amp;nbsp; &amp;nbsp;c. XXXXXXXXXX&amp;nbsp; ○&lt;br&gt;&amp;nbsp; &amp;nbsp; &amp;nbsp; &amp;nbsp; &amp;nbsp; &amp;nbsp; &amp;nbsp;d. XXXXXXXXXX&amp;nbsp; ○&lt;br&gt;&amp;nbsp; &amp;nbsp; &amp;nbsp; &amp;nbsp; &amp;nbsp; &amp;nbsp; &amp;nbsp;e. XXXXXXXXXX&amp;nbsp; ○&lt;br&gt;&lt;br&gt;" style="rounded=0;whiteSpace=wrap;html=1;align=left;" parent="1" vertex="1">
                    <mxGeometry x="-385" y="41" width="180" height="205" as="geometry"/>
                </mxCell>
                <mxCell id="35" value="" style="edgeStyle=none;html=1;exitX=0.25;exitY=0;exitDx=0;exitDy=0;entryX=1;entryY=0.75;entryDx=0;entryDy=0;" parent="1" source="38" target="2" edge="1">
                    <mxGeometry relative="1" as="geometry">
                        <Array as="points">
                            <mxPoint x="-340" y="260"/>
                            <mxPoint x="-461" y="260"/>
                            <mxPoint x="-461" y="140"/>
                        </Array>
                    </mxGeometry>
                </mxCell>
                <mxCell id="10" value="「JAVAクイズへ」をクリック" style="text;html=1;strokeColor=none;fillColor=none;align=center;verticalAlign=middle;whiteSpace=wrap;rounded=0;" parent="1" vertex="1">
                    <mxGeometry x="-636" y="179" width="177" height="30" as="geometry"/>
                </mxCell>
                <mxCell id="11" value="" style="endArrow=classic;html=1;exitX=0.5;exitY=1;exitDx=0;exitDy=0;entryX=0.5;entryY=0;entryDx=0;entryDy=0;" parent="1" source="2" target="3" edge="1">
                    <mxGeometry width="50" height="50" relative="1" as="geometry">
                        <mxPoint x="-508" y="243" as="sourcePoint"/>
                        <mxPoint x="-628" y="263" as="targetPoint"/>
                    </mxGeometry>
                </mxCell>
                <mxCell id="14" value="ログイン成功画面" style="text;html=1;strokeColor=none;fillColor=none;align=center;verticalAlign=middle;whiteSpace=wrap;rounded=0;" parent="1" vertex="1">
                    <mxGeometry x="-710" y="13" width="160" height="38" as="geometry"/>
                </mxCell>
                <mxCell id="15" value="クイズ選択画面" style="text;html=1;strokeColor=none;fillColor=none;align=center;verticalAlign=middle;whiteSpace=wrap;rounded=0;" parent="1" vertex="1">
                    <mxGeometry x="-695" y="417" width="160" height="30" as="geometry"/>
                </mxCell>
                <mxCell id="16" value="JAVAクイズ出題画面" style="text;html=1;strokeColor=none;fillColor=none;align=center;verticalAlign=middle;whiteSpace=wrap;rounded=0;" parent="1" vertex="1">
                    <mxGeometry x="-371" y="16" width="160" height="30" as="geometry"/>
                </mxCell>
                <mxCell id="17" value="「中止」をクリック&lt;br&gt;（「ログイン成功画面&lt;br&gt;」に戻る）" style="text;html=1;strokeColor=none;fillColor=none;align=center;verticalAlign=middle;whiteSpace=wrap;rounded=0;" parent="1" vertex="1">
                    <mxGeometry x="-821" y="417" width="160" height="50" as="geometry"/>
                </mxCell>
                <mxCell id="18" value="" style="endArrow=classic;html=1;exitX=-0.006;exitY=0.902;exitDx=0;exitDy=0;entryX=0;entryY=0.5;entryDx=0;entryDy=0;exitPerimeter=0;" parent="1" source="3" target="2" edge="1">
                    <mxGeometry width="50" height="50" relative="1" as="geometry">
                        <mxPoint x="-706" y="376" as="sourcePoint"/>
                        <mxPoint x="-704" y="346" as="targetPoint"/>
                        <Array as="points">
                            <mxPoint x="-744" y="398"/>
                            <mxPoint x="-744" y="107"/>
                        </Array>
                    </mxGeometry>
                </mxCell>
                <mxCell id="21" value="&lt;u&gt;中止&lt;/u&gt;" style="text;html=1;strokeColor=none;fillColor=none;align=center;verticalAlign=middle;whiteSpace=wrap;rounded=0;" parent="1" vertex="1">
                    <mxGeometry x="-636" y="394" width="48" height="21" as="geometry"/>
                </mxCell>
                <mxCell id="27" value="&lt;u&gt;中止&lt;/u&gt;" style="text;html=1;strokeColor=none;fillColor=none;align=center;verticalAlign=middle;whiteSpace=wrap;rounded=0;" parent="1" vertex="1">
                    <mxGeometry x="-300" y="394" width="48" height="21" as="geometry"/>
                </mxCell>
                <mxCell id="28" value="戻る" style="text;html=1;strokeColor=default;fillColor=none;align=center;verticalAlign=middle;whiteSpace=wrap;rounded=0;" parent="1" vertex="1">
                    <mxGeometry x="-260" y="394" width="48" height="21" as="geometry"/>
                </mxCell>
                <mxCell id="29" value="クイズ選択失敗画面" style="text;html=1;strokeColor=none;fillColor=none;align=center;verticalAlign=middle;whiteSpace=wrap;rounded=0;" parent="1" vertex="1">
                    <mxGeometry x="-385" y="417" width="160" height="30" as="geometry"/>
                </mxCell>
                <mxCell id="33" value="「中止」をクリック&lt;br&gt;（「ログイン成功画面」&lt;br&gt;に戻る）" style="text;html=1;strokeColor=none;fillColor=none;align=center;verticalAlign=middle;whiteSpace=wrap;rounded=0;" parent="1" vertex="1">
                    <mxGeometry x="-535" y="210" width="160" height="50" as="geometry"/>
                </mxCell>
                <mxCell id="36" value="" style="endArrow=classic;html=1;exitX=0.006;exitY=0.79;exitDx=0;exitDy=0;exitPerimeter=0;entryX=1.017;entryY=0.79;entryDx=0;entryDy=0;entryPerimeter=0;" parent="1" target="3" edge="1">
                    <mxGeometry width="50" height="50" relative="1" as="geometry">
                        <mxPoint x="-382.9200000000001" y="374.95000000000005" as="sourcePoint"/>
                        <mxPoint x="-414" y="270" as="targetPoint"/>
                    </mxGeometry>
                </mxCell>
                <mxCell id="37" value="「戻る」をクリック&lt;br&gt;（「クイズ選択画面」&lt;br&gt;に戻る）" style="text;html=1;strokeColor=none;fillColor=none;align=center;verticalAlign=middle;whiteSpace=wrap;rounded=0;" parent="1" vertex="1">
                    <mxGeometry x="-538" y="374" width="160" height="50" as="geometry"/>
                </mxCell>
                <mxCell id="39" value="&lt;u&gt;中止&lt;/u&gt;" style="text;html=1;strokeColor=none;fillColor=none;align=center;verticalAlign=middle;whiteSpace=wrap;rounded=0;" parent="1" vertex="1">
                    <mxGeometry x="-300" y="222" width="48" height="21" as="geometry"/>
                </mxCell>
                <mxCell id="40" value="回答" style="text;html=1;strokeColor=default;fillColor=none;align=center;verticalAlign=middle;whiteSpace=wrap;rounded=0;" parent="1" vertex="1">
                    <mxGeometry x="-260" y="222" width="48" height="21" as="geometry"/>
                </mxCell>
                <mxCell id="41" value="" style="endArrow=classic;html=1;exitX=1;exitY=0.25;exitDx=0;exitDy=0;entryX=0.55;entryY=1.01;entryDx=0;entryDy=0;entryPerimeter=0;" parent="1" source="3" target="7" edge="1">
                    <mxGeometry width="50" height="50" relative="1" as="geometry">
                        <mxPoint x="-494" y="300" as="sourcePoint"/>
                        <mxPoint x="-174" y="264" as="targetPoint"/>
                        <Array as="points">
                            <mxPoint x="-284" y="264"/>
                        </Array>
                    </mxGeometry>
                </mxCell>
                <mxCell id="42" value="「出題」をクリック" style="text;html=1;strokeColor=none;fillColor=none;align=center;verticalAlign=middle;whiteSpace=wrap;rounded=0;" parent="1" vertex="1">
                    <mxGeometry x="-547" y="260" width="160" height="30" as="geometry"/>
                </mxCell>
                <mxCell id="13" value="" style="endArrow=classic;html=1;entryX=0;entryY=0.25;entryDx=0;entryDy=0;" parent="1" target="38" edge="1">
                    <mxGeometry width="50" height="50" relative="1" as="geometry">
                        <mxPoint x="-539" y="322" as="sourcePoint"/>
                        <mxPoint x="-384" y="315.5" as="targetPoint"/>
                    </mxGeometry>
                </mxCell>
                <mxCell id="43" value="「中止」をクリック&lt;br&gt;（「ログイン成功画面」&lt;br&gt;に戻る）" style="text;html=1;strokeColor=none;fillColor=none;align=center;verticalAlign=middle;whiteSpace=wrap;rounded=0;" parent="1" vertex="1">
                    <mxGeometry x="-544" y="46" width="160" height="50" as="geometry"/>
                </mxCell>
                <mxCell id="44" value="" style="endArrow=classic;html=1;exitX=1;exitY=1;exitDx=0;exitDy=0;entryX=0;entryY=1;entryDx=0;entryDy=0;" parent="1" source="43" target="43" edge="1">
                    <mxGeometry width="50" height="50" relative="1" as="geometry">
                        <mxPoint x="-494" y="210" as="sourcePoint"/>
                        <mxPoint x="-444" y="160" as="targetPoint"/>
                    </mxGeometry>
                </mxCell>
                <mxCell id="45" value="クイズ選択成功" style="text;html=1;strokeColor=none;fillColor=none;align=center;verticalAlign=middle;whiteSpace=wrap;rounded=0;" parent="1" vertex="1">
                    <mxGeometry x="-366" y="259" width="160" height="30" as="geometry"/>
                </mxCell>
            </root>
        </mxGraphModel>
    </diagram>
</mxfile>